<svg width="24" height="24" viewBox="0 0 24 24" fill="none" xmlns="http://www.w3.org/2000/svg">
<path d="M12 6.36735C10.886 6.36735 9.79695 6.6977 8.87067 7.31662C7.94438 7.93554 7.22243 8.81524 6.79611 9.84448C6.36978 10.8737 6.25824 12.0062 6.47558 13.0989C6.69291 14.1915 7.22937 15.1951 8.01711 15.9829C8.80485 16.7706 9.8085 17.3071 10.9011 17.5244C11.9938 17.7418 13.1263 17.6302 14.1555 17.2039C15.1848 16.7776 16.0645 16.0556 16.6834 15.1293C17.3023 14.203 17.6327 13.114 17.6327 12C17.6327 10.5061 17.0392 9.07344 15.9829 8.01711C14.9266 6.96079 13.4939 6.36735 12 6.36735ZM12 16.1633C11.1766 16.1633 10.3717 15.9191 9.68701 15.4616C9.00237 15.0042 8.46875 14.3539 8.15364 13.5932C7.83854 12.8325 7.75609 11.9954 7.91673 11.1878C8.07737 10.3802 8.47388 9.63837 9.05613 9.05613C9.63837 8.47388 10.3802 8.07737 11.1878 7.91673C11.9954 7.75609 12.8325 7.83854 13.5932 8.15364C14.3539 8.46875 15.0042 9.00237 15.4616 9.68701C15.9191 10.3717 16.1633 11.1766 16.1633 12C16.16 13.1032 15.7204 14.1602 14.9403 14.9403C14.1602 15.7204 13.1032 16.16 12 16.1633ZM17.3878 0H6.61225C4.85857 0 3.17672 0.696645 1.93668 1.93668C0.696645 3.17672 0 4.85857 0 6.61225V17.3878C0 19.1414 0.696645 20.8233 1.93668 22.0633C3.17672 23.3034 4.85857 24 6.61225 24H17.3878C19.1414 24 20.8233 23.3034 22.0633 22.0633C23.3034 20.8233 24 19.1414 24 17.3878V6.61225C24 4.85857 23.3034 3.17672 22.0633 1.93668C20.8233 0.696645 19.1414 0 17.3878 0ZM22.5306 17.3878C22.5306 18.7517 21.9888 20.0598 21.0243 21.0243C20.0598 21.9888 18.7517 22.5306 17.3878 22.5306H6.61225C5.24827 22.5306 3.94017 21.9888 2.9757 21.0243C2.01122 20.0598 1.46939 18.7517 1.46939 17.3878V6.61225C1.46939 5.24827 2.01122 3.94017 2.9757 2.9757C3.94017 2.01122 5.24827 1.46939 6.61225 1.46939H17.3878C18.7517 1.46939 20.0598 2.01122 21.0243 2.9757C21.9888 3.94017 22.5306 5.24827 22.5306 6.61225V17.3878ZM19.5918 5.63265C19.5918 5.87483 19.52 6.11158 19.3855 6.31294C19.2509 6.51431 19.0597 6.67126 18.8359 6.76393C18.6122 6.85661 18.366 6.88086 18.1285 6.83361C17.8909 6.78637 17.6727 6.66975 17.5015 6.4985C17.3303 6.32725 17.2136 6.10907 17.1664 5.87154C17.1191 5.63401 17.1434 5.38781 17.2361 5.16406C17.3287 4.94031 17.4857 4.74908 17.6871 4.61453C17.8884 4.47998 18.1252 4.40816 18.3673 4.40816C18.6921 4.40816 19.0036 4.53717 19.2332 4.76681C19.4628 4.99644 19.5918 5.3079 19.5918 5.63265Z" fill="white"/>
</svg>
