<svg width="18" height="25" viewBox="0 0 18 25" fill="none" xmlns="http://www.w3.org/2000/svg">
<path d="M9 25L8.44615 24.3836C8.1 24.0411 0 14.589 0 8.90411C0 3.9726 4.01538 0 9 0C13.9846 0 18 3.9726 18 8.90411C18 14.589 9.9 24.0411 9.55385 24.4521L9 25ZM9 1.36986C4.77692 1.36986 1.38462 4.72603 1.38462 8.90411C1.38462 13.2877 7.2 20.6849 9 22.8767C10.8 20.6849 16.6154 13.2877 16.6154 8.90411C16.6154 4.72603 13.2231 1.36986 9 1.36986Z" fill="#49546A"/>
<path d="M8.99999 12.3288C7.06153 12.3288 5.53845 10.8219 5.53845 8.90412C5.53845 6.98631 7.06153 5.47946 8.99999 5.47946C10.9385 5.47946 12.4615 6.98631 12.4615 8.90412C12.4615 10.8219 10.9385 12.3288 8.99999 12.3288ZM8.99999 6.84932C7.82307 6.84932 6.92307 7.73974 6.92307 8.90412C6.92307 10.0685 7.82307 10.9589 8.99999 10.9589C10.1769 10.9589 11.0769 10.0685 11.0769 8.90412C11.0769 7.73974 10.1769 6.84932 8.99999 6.84932Z" fill="#49546A"/>
</svg>
